<svg xmlns="http://www.w3.org/2000/svg" xmlns:xlink="http://www.w3.org/1999/xlink" viewBox="0,0,256,256" width="48px" height="48px"><g fill="#ffffff" fill-rule="nonzero" stroke="none" stroke-width="1" stroke-linecap="butt" stroke-linejoin="miter" stroke-miterlimit="10" stroke-dasharray="" stroke-dashoffset="0" font-family="none" font-weight="none" font-size="none" text-anchor="none" style="mix-blend-mode: normal"><g transform="scale(4,4)"><path d="M28.54102,12.44141c-7.236,0.608 -12.84766,3.69141 -12.84766,3.69141c0,0 -7.69336,8.06402 -7.69336,23.29102v4.87109l1.81641,1.18359c5.839,3.806 10.00019,5.73438 12.36719,5.73438h2.10352l2.74805,-3.99414c1.51,0.266 3.19184,0.44727 4.96484,0.44727c1.773,0 3.45384,-0.18127 4.96484,-0.44727l2.74805,3.99414h2.10352c2.367,0 6.52819,-1.92938 12.36719,-5.73437l1.81641,-1.18359v-4.87109c0,-15.044 -7.69336,-23.29102 -7.69336,-23.29102c0,0 -5.25861,-2.99241 -12.84961,-3.69141l-1.20898,2.29102c-0.676,-0.057 -1.436,-0.0957 -2.25,-0.0957c-0.814,0 -1.573,0.0397 -2.25,0.0957zM26.3125,16.78711l1.21094,2.29688c0,0 1.92652,-0.44531 4.47852,-0.44531c2.552,0 4.47656,0.44531 4.47656,0.44531l1.21094,-2.29687c3.904,0.539 8.13086,2.58594 8.13086,2.58594c0,0 6.17969,7.15778 6.17969,20.05078v2.70313c0,0 -7.80555,5.08694 -10.18555,5.08594l-2.30664,-3.35547c1.434,-0.642 3.39063,-1.75781 3.39063,-1.75781l-0.71484,-0.55273c0,0 -4.57455,2.11719 -10.18555,2.11719c-5.611,0 -10.18359,-2.11719 -10.18359,-2.11719l-0.71484,0.55273c0,0 1.95662,1.11581 3.39063,1.75781l-2.30664,3.35547c-2.378,0 -10.18359,-5.08594 -10.18359,-5.08594v-2.70312c0,-12.893 6.18164,-20.05078 6.18164,-20.05078c0,0 4.22686,-2.04794 8.13086,-2.58594zM24.00977,29.04492c-2.36,0 -4.27539,2.14978 -4.27539,4.80078c0,2.652 1.91539,4.80078 4.27539,4.80078c2.36,0 4.27344,-2.14878 4.27344,-4.80078c0,-2.652 -1.91344,-4.80078 -4.27344,-4.80078zM39.99023,29.04492c-2.361,0 -4.27344,2.14978 -4.27344,4.80078c0,2.652 1.91344,4.80078 4.27344,4.80078c2.361,0 4.27539,-2.14878 4.27539,-4.80078c0,-2.652 -1.91439,-4.80078 -4.27539,-4.80078z"></path></g></g></svg>